<?xml version="1.0" encoding="UTF-8"?>
<svg width="300px" height="300px" viewBox="0 0 300 300" version="1.1" xmlns="http://www.w3.org/2000/svg" xmlns:xlink="http://www.w3.org/1999/xlink">
    <!-- Generator: Sketch 61.2 (89653) - https://sketch.com -->
    <title>facebook</title>
    <desc>Created with Sketch.</desc>
    <g id="Page-1" stroke="none" stroke-width="1" fill="none" fill-rule="evenodd">
        <g id="facebook" fill="#000000" fill-rule="nonzero">
            <path d="M264.84375,0 L35.15625,0 C15.7710938,0 0,15.7710938 0,35.15625 L0,264.84375 C0,284.228906 15.7710938,300 35.15625,300 L264.84375,300 C284.228906,300 300,284.228906 300,264.84375 L300,35.15625 C300,15.7710938 284.228906,0 264.84375,0 Z M276.5625,264.84375 C276.5625,271.305469 271.305469,276.5625 264.84375,276.5625 L198.046875,276.5625 L198.046875,181.054688 L234.251953,181.054688 L240.234375,144.726563 L198.046875,144.726563 L198.046875,119.53125 C198.046875,109.584961 205.678711,101.953125 215.625,101.953125 L239.648438,101.953125 L239.648438,65.625 L215.625,65.625 C185.787305,65.625 161.731641,89.7949219 161.731641,119.633203 L161.731641,144.726563 L126.5625,144.726563 L126.5625,181.054688 L161.731641,181.054688 L161.731641,276.5625 L35.15625,276.5625 C28.6945313,276.5625 23.4375,271.305469 23.4375,264.84375 L23.4375,35.15625 C23.4375,28.6945313 28.6945313,23.4375 35.15625,23.4375 L264.84375,23.4375 C271.305469,23.4375 276.5625,28.6945313 276.5625,35.15625 L276.5625,264.84375 Z" id="Shape"></path>
        </g>
    </g>
</svg>