<?xml version="1.0" encoding="UTF-8"?>
<svg width="301px" height="302px" viewBox="0 0 301 302" version="1.1" xmlns="http://www.w3.org/2000/svg" xmlns:xlink="http://www.w3.org/1999/xlink">
    <!-- Generator: Sketch 61.2 (89653) - https://sketch.com -->
    <title>instagram</title>
    <desc>Created with Sketch.</desc>
    <g id="Page-1" stroke="none" stroke-width="1" fill="none" fill-rule="evenodd">
        <g id="instagram" transform="translate(0.500000, 1.000000)" fill="#000000" fill-rule="nonzero">
            <path d="M206.0625,0 L93.9375,0 C42.3413125,0 0.5,41.98125 0.5,93.75 L0.5,206.25 C0.5,258.01875 42.3413125,300 93.9375,300 L206.0625,300 C257.658687,300 299.5,258.01875 299.5,206.25 L299.5,93.75 C299.5,41.98125 257.658687,0 206.0625,0 Z M271.46875,206.25 C271.46875,242.4375 242.129375,271.875 206.0625,271.875 L93.9375,271.875 C57.870625,271.875 28.53125,242.4375 28.53125,206.25 L28.53125,93.75 C28.53125,57.5625 57.870625,28.125 93.9375,28.125 L206.0625,28.125 C242.129375,28.125 271.46875,57.5625 271.46875,93.75 L271.46875,206.25 Z" id="Shape" stroke="#979797"></path>
            <path d="M150.5,75.2508361 C109.08125,75.2508361 75.5,108.944398 75.5,150.501672 C75.5,192.058946 109.08125,225.752508 150.5,225.752508 C191.91875,225.752508 225.5,192.058946 225.5,150.501672 C225.5,108.944398 191.91875,75.2508361 150.5,75.2508361 Z M150.5,197.533445 C124.6625,197.533445 103.625,176.425585 103.625,150.501672 C103.625,124.558946 124.6625,103.4699 150.5,103.4699 C176.3375,103.4699 197.375,124.558946 197.375,150.501672 C197.375,176.425585 176.3375,197.533445 150.5,197.533445 Z" id="Shape"></path>
            <ellipse id="Oval" cx="225.5" cy="85.2842809" rx="10" ry="10.0334448"></ellipse>
        </g>
    </g>
</svg>