<?xml version="1.0" encoding="UTF-8"?>
<svg width="86px" height="86px" viewBox="0 0 86 86" version="1.1" xmlns="http://www.w3.org/2000/svg" xmlns:xlink="http://www.w3.org/1999/xlink">
    <!-- Generator: Sketch 61.2 (89653) - https://sketch.com -->
    <title>phone</title>
    <desc>Created with Sketch.</desc>
    <g id="Page-1" stroke="none" stroke-width="1" fill="none" fill-rule="evenodd">
        <g id="phone" fill="#000000" fill-rule="nonzero">
            <path d="M45.8571429,23 C44.28,23 43,24.28 43,25.8571429 C43,27.4342857 44.28,28.7142857 45.8571429,28.7142857 C52.16,28.7142857 57.2857143,33.84 57.2857143,40.1428571 C57.2857143,41.72 58.5657143,43 60.1428571,43 C61.72,43 63,41.72 63,40.1428571 C63,30.6914286 55.3085714,23 45.8571429,23 Z" id="Path"></path>
            <path d="M45.8181818,12 C44.2625455,12 43,13.2625455 43,14.8181818 C43,16.3738182 44.2625455,17.6363636 45.8181818,17.6363636 C58.252,17.6363636 68.3636364,27.748 68.3636364,40.1818182 C68.3636364,41.7374545 69.6261818,43 71.1818182,43 C72.7374545,43 74,41.7374545 74,40.1818182 C74,24.6423636 61.3576364,12 45.8181818,12 Z" id="Path"></path>
            <path d="M45.8666667,0 C44.2842667,0 43,1.28426667 43,2.86666667 C43,4.44906667 44.2842667,5.73333333 45.8666667,5.73333333 C64.8382667,5.73333333 80.2666667,21.1617333 80.2666667,40.1333333 C80.2666667,41.7157333 81.5509333,43 83.1333333,43 C84.7157333,43 86,41.7157333 86,40.1333333 C86,18.0026667 67.9916,0 45.8666667,0 Z" id="Path"></path>
            <path d="M77.1428571,63.1428571 C68.8457143,63.1428571 60.9428571,61.3371429 53.6571429,57.7771429 C52.9714286,57.4342857 52.1828571,57.3942857 51.4685714,57.6457143 C50.7485714,57.8971429 50.16,58.4228571 49.8285714,59.1028571 L45.3371429,68.4 C33.7142857,61.9142857 24.0914286,52.2971429 17.6114286,40.6742857 L26.9028571,36.1714286 C27.5885714,35.84 28.1085714,35.2514286 28.36,34.5314286 C28.6057143,33.8171429 28.56,33.0285714 28.2228571,32.3428571 C24.6628571,25.0571429 22.8571429,17.1542857 22.8571429,8.85714286 C22.8571429,7.28 21.5771429,6 20,6 L2.85714286,6 C1.28,6 0,7.28 0,8.85714286 C0,51.3942857 34.6057143,86 77.1428571,86 C78.72,86 80,84.72 80,83.1428571 L80,66 C80,64.4228571 78.72,63.1428571 77.1428571,63.1428571 Z" id="Path"></path>
        </g>
    </g>
</svg>